mastitorrents.com
  
http://mastitorrents.com/forums/index.php
  
http://thepiratebay.se/user/HDvideos/0/7

Complete name : Dabangg 2 (2012) - Xvid - DvdScr Rip - AC3 - E-subs -[TDT].avi

IMDB : Dabangg 2 (2012) - IMDb
Format : AVI
File size : 896 MiB
Duration : 1h 59mn
Overall bit rate : 1 051 Kbps
Source : DvdSCR @ Team ICTV
Ripper : KingFisheR [~TDT~].

Video

Codec ID : XVID
Duration : 1h 59mn
Bit rate : 914 Kbps
Width : 704 pixels
Height : 272 pixels
Display aspect ratio : 2.588
Frame rate : 23.976 fps
Bits/(Pixel*Frame) : 0.199
Stream size : 779 MiB (87%)

Audio

Format : AC-3
Duration : 1h 59mn
Bit rate mode : Constant
Bit rate : 128 Kbps
Channel(s) : 2 channels
Channel positions : Front: L R
Sampling rate : 48.0 KHz
Stream size : 109 MiB (12%)

Screens: 
http://img5.imageshack.us/img5/7720/vlcsnap2012122422h22m44.png 
http://img850.imageshack.us/img850/3820/vlcsnap2012122422h28m05.png 
http://img837.imageshack.us/img837/8256/vlcsnap2012122422h28m59.png 
http://img842.imageshack.us/img842/273/vlcsnap2012122422h30m12.png 
http://img109.imageshack.us/img109/7770/vlcsnap2012122422h30m28.png 
http://img405.imageshack.us/img405/1044/vlcsnap2012122422h30m35.png 
http://img171.imageshack.us/img171/3151/vlcsnap2012122422h36m21.png 
http://img594.imageshack.us/img594/1488/vlcsnap2012122422h39m00.png 
http://img10.imageshack.us/img10/9541/vlcsnap2012122422h39m39.png 
http://img38.imageshack.us/img38/4913/vlcsnap2012122422h43m09.png 
http://img545.imageshack.us/img545/6615/vlcsnap2012122422h43m51.png 
http://img829.imageshack.us/img829/4489/vlcsnap2012122422h46m11.png 
http://img856.imageshack.us/img856/7504/vlcsnap2012122422h47m38.png 
http://img803.imageshack.us/img803/1600/vlcsnap2012122422h49m44.png

Merry XMas to all :D